<?xml version="1.0" standalone="no"?>
<!DOCTYPE svg PUBLIC "-//W3C//DTD SVG 20010904//EN"
 "http://www.w3.org/TR/2001/REC-SVG-20010904/DTD/svg10.dtd">
<svg version="1.0" xmlns="http://www.w3.org/2000/svg"
 width="425.000000pt" height="425.000000pt" viewBox="0 0 425.000000 425.000000"
 preserveAspectRatio="xMidYMid meet">
<metadata>
Created by potrace 1.14, written by Peter Selinger 2001-2017
</metadata>
<g transform="translate(0.000000,425.000000) scale(0.100000,-0.100000)"
fill="#000000" stroke="none">
<path d="M2000 4184 c-183 -109 -1035 -607 -1060 -621 -14 -7 -173 -100 -355
-207 l-330 -193 -2 -1059 -3 -1059 127 -70 c69 -38 153 -85 187 -103 34 -19
78 -45 98 -58 21 -13 40 -24 42 -24 3 0 74 -39 158 -86 84 -48 180 -101 213
-119 33 -18 89 -50 125 -70 36 -21 94 -53 130 -72 36 -20 70 -39 75 -43 6 -4
37 -22 70 -40 112 -62 150 -83 308 -172 87 -49 182 -102 210 -117 29 -16 69
-38 90 -50 l39 -22 41 24 c23 14 78 44 122 68 44 23 97 53 117 66 21 13 39 23
41 23 2 0 78 41 168 91 90 50 189 105 219 122 405 223 647 357 703 388 38 22
70 39 72 39 2 0 30 15 62 34 53 30 103 58 253 139 30 16 61 34 67 39 13 10 13
9 -3 1248 -7 558 -11 853 -13 883 -1 9 -6 17 -12 17 -8 0 -119 61 -199 110
-58 35 -387 226 -395 229 -5 2 -21 12 -35 21 -14 9 -45 28 -70 42 -25 14 -119
69 -209 122 -90 53 -165 96 -168 96 -2 0 -24 14 -48 30 -24 17 -46 30 -48 30
-3 0 -51 27 -107 60 -56 33 -106 60 -111 60 -5 0 -9 5 -9 10 0 6 -4 10 -10 10
-5 0 -44 21 -87 46 -43 26 -94 55 -113 66 -19 11 -76 44 -127 74 -51 30 -100
54 -110 54 -10 0 -61 -26 -113 -56z"/>
</g>
</svg>
